<mxfile host="app.diagrams.net" modified="2023-10-16T10:37:33.048Z" agent="Mozilla/5.0 (Windows NT 10.0; Win64; x64) AppleWebKit/537.36 (KHTML, like Gecko) Chrome/117.0.0.0 Safari/537.36" version="21.8.2" etag="pAbNICqz-KUtTdkA3adi" type="github">
  <diagram name="PÃ¡gina-1" id="BwQtsePjP3Z37Ozm1RG8">
    <mxGraphModel>
      <root>
        <mxCell id="0" />
        <mxCell id="1" parent="0" />
      </root>
    </mxGraphModel>
  </diagram>
</mxfile>
